<svg width="303" height="318" viewBox="0 0 303 318" fill="none" xmlns="http://www.w3.org/2000/svg">
    <path d="M39.008 222.92C36.192 222.92 33.76 222.216 31.712 220.808C29.792 219.272 28.832 215.752 28.832 210.248C28.832 207.432 29.088 204.04 29.6 200.072C30.24 195.976 30.88 191.752 31.52 187.4C32.544 181.256 33.568 174.536 34.592 167.24C35.616 159.816 36.128 152.456 36.128 145.16C36.128 137.48 35.872 131.592 35.36 127.496C34.848 123.4 34.272 120.072 33.632 117.512C33.376 116.104 33.12 114.824 32.864 113.672C32.736 112.52 32.672 111.24 32.672 109.832C32.672 105.736 33.952 102.664 36.512 100.616C39.2 98.44 42.144 97.352 45.344 97.352C48.544 97.352 51.232 98.184 53.408 99.848C55.584 101.384 57.504 103.048 59.168 104.84C70.176 117.256 80.096 130.312 88.928 144.008C97.76 157.576 105.12 171.528 111.008 185.864C111.648 186.888 112.224 187.4 112.736 187.4C113.504 187.4 114.016 186.888 114.272 185.864C116.576 170.888 117.728 157.32 117.728 145.16C117.728 137.864 117.408 132.104 116.768 127.88C116.256 123.528 115.552 120.2 114.656 117.896C113.888 115.464 113.12 113.544 112.352 112.136C111.968 111.24 111.648 110.472 111.392 109.832C111.136 109.064 111.008 108.36 111.008 107.72C111.008 106.184 111.776 104.648 113.312 103.112C114.976 101.448 116.96 100.104 119.264 99.08C121.568 98.056 123.808 97.544 125.984 97.544C129.056 97.544 131.296 98.568 132.704 100.616C134.112 102.664 135.008 105.224 135.392 108.296C135.904 111.24 136.16 114.248 136.16 117.32C136.16 120.776 135.84 125.256 135.2 130.76C134.56 136.264 133.792 142.216 132.896 148.616C132.128 154.888 131.424 161.096 130.784 167.24C130.272 173.384 130.016 178.824 130.016 183.56C130.016 186.248 130.08 188.872 130.208 191.432C130.464 193.992 130.72 196.488 130.976 198.92C131.36 202.12 131.552 204.936 131.552 207.368C131.552 212.104 130.336 215.88 127.904 218.696C125.6 221.384 122.4 222.728 118.304 222.728C115.488 222.728 112.672 221.896 109.856 220.232C107.168 218.568 105.12 215.88 103.712 212.168C98.208 198.088 91.424 184.392 83.36 171.08C75.424 157.64 67.104 146.056 58.4 136.328C56.992 135.048 55.84 134.408 54.944 134.408C53.664 134.408 52.832 135.816 52.448 138.632C51.808 143.496 51.168 148.808 50.528 154.568C49.888 160.328 49.376 165.96 48.992 171.464C48.608 176.84 48.416 181.448 48.416 185.288C48.416 189.64 48.8 193.416 49.568 196.616C50.336 199.688 51.488 202.696 53.024 205.64C54.432 208.2 55.136 210.504 55.136 212.552C55.136 214.984 53.728 217.352 50.912 219.656C48.096 221.832 44.128 222.92 39.008 222.92Z" fill="url(#paint0_linear_2017_21)"/>
    <path d="M179.944 213.32C177.512 203.592 175.656 193.8 174.376 183.944C173.096 173.96 171.944 157.576 170.92 134.792C170.92 133.256 171.432 131.912 172.456 130.76C173.608 129.608 174.888 129.032 176.296 129.032H178.024C178.664 133.256 179.112 140.04 179.368 149.384C179.368 150.408 179.496 153.864 179.752 159.752C180.008 165.512 180.648 170.952 181.672 176.072C196.52 174.664 208.36 171.784 217.192 167.432C226.152 163.08 230.632 156.872 230.632 148.808C230.632 138.696 226.152 130.44 217.192 124.04C208.232 117.64 194.728 114.44 176.68 114.44C169.128 114.44 162.728 115.848 157.48 118.664C156.584 119.048 155.944 119.88 155.56 121.16C155.176 122.312 154.856 123.976 154.6 126.152C154.344 128.456 154.024 130.184 153.64 131.336C153.256 132.488 152.552 133.064 151.528 133.064C150.376 133.064 149.608 132.232 149.224 130.568C148.968 128.776 148.84 124.744 148.84 118.472C148.84 114.888 151.272 112.072 156.136 110.024C161 107.976 167.272 106.952 174.952 106.952C197.352 106.952 213.992 110.472 224.872 117.512C235.752 124.552 241.192 135.368 241.192 149.96C241.192 157.768 238.056 164.296 231.784 169.544C225.512 174.792 217.896 178.696 208.936 181.256C199.976 183.688 191.4 184.904 183.208 184.904C183.464 186.44 183.72 187.848 183.976 189.128C184.232 190.408 184.424 191.496 184.552 192.392C186.344 201.096 187.24 207.816 187.24 212.552C187.24 215.368 186.856 217.608 186.088 219.272C185.448 220.936 183.976 221.512 181.672 221L179.944 213.32ZM265.107 221.192C262.163 221.192 259.795 216.904 258.003 208.328C256.211 199.624 255.059 192.136 254.547 185.864C254.035 179.592 253.331 169.672 252.435 156.104C252.307 153.928 252.243 151.112 252.243 147.656C252.243 143.304 252.563 140.296 253.203 138.632C253.971 136.968 255.187 136.136 256.851 136.136C258.259 136.136 259.347 136.456 260.115 137.096C261.011 137.608 261.779 138.504 262.419 139.784L262.227 147.464C262.227 155.656 262.611 163.4 263.379 170.696C264.275 177.992 265.619 187.784 267.411 200.072C268.435 205.448 269.139 209.864 269.523 213.32C269.779 215.112 269.458 216.904 268.562 218.696C267.667 220.36 266.515 221.192 265.107 221.192ZM260.307 115.592C257.491 115.592 255.379 114.504 253.971 112.328C252.691 110.152 252.051 107.464 252.051 104.264C252.051 102.856 252.115 101.832 252.243 101.192C252.115 99.144 253.267 98.12 255.699 98.12C257.491 98.12 259.283 98.568 261.075 99.464C262.995 100.232 263.571 100.808 262.803 101.192C264.083 104.52 264.723 107.144 264.723 109.064C264.723 110.728 264.339 112.072 263.571 113.096C262.803 113.992 261.715 114.824 260.307 115.592Z" fill="url(#paint1_linear_2017_21)"/>
    <defs>
        <linearGradient id="paint0_linear_2017_21" x1="145" y1="158.328" x2="20.1803" y2="163.791" gradientUnits="userSpaceOnUse">
            <stop stop-color="#CBEF7F"/>
            <stop offset="0.182213" stop-color="#67CD51"/>
            <stop offset="0.587213" stop-color="#34AD6F"/>
            <stop offset="0.782213" stop-color="#149981"/>
            <stop offset="0.962213" stop-color="#142999"/>
        </linearGradient>
        <linearGradient id="paint1_linear_2017_21" x1="311" y1="159" x2="145" y2="159" gradientUnits="userSpaceOnUse">
            <stop stop-color="#F71515"/>
            <stop offset="0.312213" stop-color="#D8F140"/>
            <stop offset="0.622213" stop-color="#EF6E89"/>
            <stop offset="0.88" stop-color="#8B9CF6"/>
        </linearGradient>
    </defs>
</svg>
